<mxfile host="app.diagrams.net" modified="2023-08-24T19:05:21.948Z" agent="Mozilla/5.0 (Windows NT 10.0; Win64; x64) AppleWebKit/537.36 (KHTML, like Gecko) Chrome/115.0.0.0 Safari/537.36" etag="0WaSPG5YhJTqujNEEM_b" version="21.6.8" type="google">
  <diagram id="7IvB7AEUV1gk1nzOclQF" name="Flowchart">
    <mxGraphModel dx="1050" dy="1703" grid="1" gridSize="10" guides="1" tooltips="1" connect="1" arrows="1" fold="1" page="1" pageScale="1" pageWidth="827" pageHeight="1169" math="0" shadow="0">
      <root>
        <mxCell id="0" />
        <mxCell id="1" parent="0" />
        <mxCell id="HvSzyTemOHkLpGtqbX1X-7" style="edgeStyle=orthogonalEdgeStyle;rounded=0;orthogonalLoop=1;jettySize=auto;html=1;entryX=0.5;entryY=0;entryDx=0;entryDy=0;" parent="1" source="HvSzyTemOHkLpGtqbX1X-2" target="HvSzyTemOHkLpGtqbX1X-3" edge="1">
          <mxGeometry relative="1" as="geometry" />
        </mxCell>
        <mxCell id="HvSzyTemOHkLpGtqbX1X-2" value="Start" style="ellipse;whiteSpace=wrap;html=1;" parent="1" vertex="1">
          <mxGeometry x="100" y="-1160" width="120" height="80" as="geometry" />
        </mxCell>
        <mxCell id="HvSzyTemOHkLpGtqbX1X-8" style="edgeStyle=orthogonalEdgeStyle;rounded=0;orthogonalLoop=1;jettySize=auto;html=1;entryX=0.5;entryY=0;entryDx=0;entryDy=0;" parent="1" source="HvSzyTemOHkLpGtqbX1X-3" target="HvSzyTemOHkLpGtqbX1X-4" edge="1">
          <mxGeometry relative="1" as="geometry" />
        </mxCell>
        <mxCell id="HvSzyTemOHkLpGtqbX1X-3" value="Input a,b" style="shape=parallelogram;perimeter=parallelogramPerimeter;whiteSpace=wrap;html=1;fixedSize=1;" parent="1" vertex="1">
          <mxGeometry x="60" y="-1040" width="200" height="80" as="geometry" />
        </mxCell>
        <mxCell id="HvSzyTemOHkLpGtqbX1X-9" style="edgeStyle=orthogonalEdgeStyle;rounded=0;orthogonalLoop=1;jettySize=auto;html=1;entryX=0.5;entryY=0;entryDx=0;entryDy=0;" parent="1" source="HvSzyTemOHkLpGtqbX1X-4" target="HvSzyTemOHkLpGtqbX1X-5" edge="1">
          <mxGeometry relative="1" as="geometry" />
        </mxCell>
        <mxCell id="HvSzyTemOHkLpGtqbX1X-4" value="Sum = a+b" style="rounded=0;whiteSpace=wrap;html=1;" parent="1" vertex="1">
          <mxGeometry x="65" y="-900" width="190" height="100" as="geometry" />
        </mxCell>
        <mxCell id="HvSzyTemOHkLpGtqbX1X-10" style="edgeStyle=orthogonalEdgeStyle;rounded=0;orthogonalLoop=1;jettySize=auto;html=1;entryX=0.5;entryY=0;entryDx=0;entryDy=0;" parent="1" source="HvSzyTemOHkLpGtqbX1X-5" target="HvSzyTemOHkLpGtqbX1X-6" edge="1">
          <mxGeometry relative="1" as="geometry" />
        </mxCell>
        <mxCell id="HvSzyTemOHkLpGtqbX1X-5" value="Print Sum" style="shape=parallelogram;perimeter=parallelogramPerimeter;whiteSpace=wrap;html=1;fixedSize=1;" parent="1" vertex="1">
          <mxGeometry x="60" y="-720" width="200" height="80" as="geometry" />
        </mxCell>
        <mxCell id="HvSzyTemOHkLpGtqbX1X-6" value="End" style="ellipse;whiteSpace=wrap;html=1;" parent="1" vertex="1">
          <mxGeometry x="100" y="-570" width="120" height="80" as="geometry" />
        </mxCell>
        <mxCell id="HvSzyTemOHkLpGtqbX1X-20" style="edgeStyle=orthogonalEdgeStyle;rounded=0;orthogonalLoop=1;jettySize=auto;html=1;entryX=0.5;entryY=0;entryDx=0;entryDy=0;" parent="1" source="HvSzyTemOHkLpGtqbX1X-21" target="HvSzyTemOHkLpGtqbX1X-23" edge="1">
          <mxGeometry relative="1" as="geometry" />
        </mxCell>
        <mxCell id="HvSzyTemOHkLpGtqbX1X-21" value="Start" style="ellipse;whiteSpace=wrap;html=1;" parent="1" vertex="1">
          <mxGeometry x="520" y="-1160" width="120" height="80" as="geometry" />
        </mxCell>
        <mxCell id="HvSzyTemOHkLpGtqbX1X-22" style="edgeStyle=orthogonalEdgeStyle;rounded=0;orthogonalLoop=1;jettySize=auto;html=1;entryX=0.5;entryY=0;entryDx=0;entryDy=0;" parent="1" source="HvSzyTemOHkLpGtqbX1X-23" target="HvSzyTemOHkLpGtqbX1X-25" edge="1">
          <mxGeometry relative="1" as="geometry" />
        </mxCell>
        <mxCell id="HvSzyTemOHkLpGtqbX1X-23" value="Input 10,20" style="shape=parallelogram;perimeter=parallelogramPerimeter;whiteSpace=wrap;html=1;fixedSize=1;" parent="1" vertex="1">
          <mxGeometry x="480" y="-1040" width="200" height="80" as="geometry" />
        </mxCell>
        <mxCell id="HvSzyTemOHkLpGtqbX1X-24" style="edgeStyle=orthogonalEdgeStyle;rounded=0;orthogonalLoop=1;jettySize=auto;html=1;entryX=0.5;entryY=0;entryDx=0;entryDy=0;" parent="1" source="HvSzyTemOHkLpGtqbX1X-25" target="HvSzyTemOHkLpGtqbX1X-27" edge="1">
          <mxGeometry relative="1" as="geometry" />
        </mxCell>
        <mxCell id="HvSzyTemOHkLpGtqbX1X-25" value="10+20 = 30" style="rounded=0;whiteSpace=wrap;html=1;" parent="1" vertex="1">
          <mxGeometry x="485" y="-900" width="190" height="100" as="geometry" />
        </mxCell>
        <mxCell id="HvSzyTemOHkLpGtqbX1X-26" style="edgeStyle=orthogonalEdgeStyle;rounded=0;orthogonalLoop=1;jettySize=auto;html=1;entryX=0.5;entryY=0;entryDx=0;entryDy=0;" parent="1" source="HvSzyTemOHkLpGtqbX1X-27" target="HvSzyTemOHkLpGtqbX1X-28" edge="1">
          <mxGeometry relative="1" as="geometry" />
        </mxCell>
        <mxCell id="HvSzyTemOHkLpGtqbX1X-27" value="Print 30" style="shape=parallelogram;perimeter=parallelogramPerimeter;whiteSpace=wrap;html=1;fixedSize=1;" parent="1" vertex="1">
          <mxGeometry x="480" y="-720" width="200" height="80" as="geometry" />
        </mxCell>
        <mxCell id="HvSzyTemOHkLpGtqbX1X-28" value="End" style="ellipse;whiteSpace=wrap;html=1;" parent="1" vertex="1">
          <mxGeometry x="520" y="-570" width="120" height="80" as="geometry" />
        </mxCell>
      </root>
    </mxGraphModel>
  </diagram>
</mxfile>
